<?xml version="1.0" encoding="UTF-8" standalone="no"?>
<svg width="581px" height="232px" viewBox="0 0 581 232" version="1.1" xmlns="http://www.w3.org/2000/svg" xmlns:xlink="http://www.w3.org/1999/xlink" xmlns:sketch="http://www.bohemiancoding.com/sketch/ns">
    <!-- Generator: Sketch 3.3.3 (12072) - http://www.bohemiancoding.com/sketch -->
    <title>Shape</title>
    <desc>Created with Sketch.</desc>
    <defs></defs>
    <g id="Page-1" stroke="none" stroke-width="1" fill="none" fill-rule="evenodd" sketch:type="MSPage">
        <g id="noun_195958_cc" sketch:type="MSLayerGroup" transform="translate(-3.125000, -1.765625)" fill="#000000">
            <path d="M582.788889,115.377778 L562.466667,101.611111 C561.155556,100.955556 559.844444,100.955556 559.188889,101.611111 C557.877778,102.266667 557.222222,103.577778 557.222222,104.233333 L557.222222,111.444444 L499.533333,111.444444 C496.911111,103.577778 489.7,97.6777778 480.522222,97.6777778 C471.344444,97.6777778 464.133333,103.577778 461.511111,111.444444 L392.677778,111.444444 C390.711111,104.888889 384.811111,99.6444444 378.255556,98.3333333 L378.255556,74.0777778 L418.244444,74.0777778 C420.866667,74.0777778 423.488889,72.1111111 423.488889,68.8333333 L423.488889,7.86666667 C423.488889,5.24444444 421.522222,2.62222222 418.244444,2.62222222 L329.744444,2.62222222 C327.122222,2.62222222 324.5,4.58888889 324.5,7.86666667 L324.5,68.8333333 C324.5,71.4555556 326.466667,74.0777778 329.744444,74.0777778 L371.7,74.0777778 L371.7,98.3333333 C363.833333,98.9888889 357.277778,104.233333 354.655556,111.444444 L285.822222,111.444444 C283.2,103.577778 275.988889,97.6777778 266.811111,97.6777778 C257.633333,97.6777778 250.422222,103.577778 247.8,111.444444 L178.966667,111.444444 C176.344444,104.888889 170.444444,99.6444444 163.233333,98.3333333 L163.233333,74.7333333 L204.533333,74.7333333 C207.155556,74.7333333 209.777778,72.7666667 209.777778,69.4888889 L209.777778,8.52222222 C209.777778,5.9 207.811111,3.27777778 204.533333,3.27777778 L116.033333,3.27777778 C113.411111,3.27777778 110.788889,5.24444444 110.788889,8.52222222 L110.788889,69.4888889 C110.788889,72.1111111 112.755556,74.7333333 116.033333,74.7333333 L157.333333,74.7333333 L157.333333,98.3333333 C150.122222,99.6444444 144.222222,104.888889 141.6,111.444444 L72.1111111,111.444444 C69.4888889,103.577778 62.2777778,97.6777778 53.1,97.6777778 C41.9555556,97.6777778 32.7777778,106.855556 32.7777778,118 C32.7777778,127.833333 39.9888889,136.355556 49.8222222,137.666667 L49.8222222,161.266667 L9.17777778,161.266667 C6.55555556,161.266667 3.93333333,163.233333 3.93333333,166.511111 L3.93333333,227.477778 C3.93333333,230.1 5.9,232.722222 9.17777778,232.722222 L97.6777778,232.722222 C100.3,232.722222 102.922222,230.755556 102.922222,227.477778 L102.922222,166.511111 C102.922222,163.888889 100.955556,161.266667 97.6777778,161.266667 L56.3777778,161.266667 L56.3777778,137.666667 C63.5888889,136.355556 69.4888889,131.111111 72.1111111,124.555556 L140.944444,124.555556 C143.566667,132.422222 150.777778,138.322222 159.955556,138.322222 C169.133333,138.322222 176.344444,132.422222 178.966667,124.555556 L247.8,124.555556 C249.766667,131.111111 255.666667,136.355556 262.222222,137.666667 L262.222222,161.922222 L220.922222,161.922222 C218.3,161.922222 215.677778,163.888889 215.677778,167.166667 L215.677778,228.133333 C215.677778,230.755556 217.644444,233.377778 220.922222,233.377778 L309.422222,233.377778 C312.044444,233.377778 314.666667,231.411111 314.666667,228.133333 L314.666667,167.166667 C314.666667,164.544444 312.7,161.922222 309.422222,161.922222 L268.122222,161.922222 L268.122222,137.666667 C275.988889,137.011111 282.544444,131.766667 285.166667,124.555556 L354,124.555556 C356.622222,132.422222 363.833333,138.322222 373.011111,138.322222 C382.188889,138.322222 389.4,132.422222 392.022222,124.555556 L460.855556,124.555556 C463.477778,131.111111 469.377778,136.355556 476.588889,137.666667 L476.588889,161.266667 L435.288889,161.266667 C432.666667,161.266667 430.044444,163.233333 430.044444,166.511111 L430.044444,227.477778 C430.044444,230.1 432.011111,232.722222 435.288889,232.722222 L523.788889,232.722222 C526.411111,232.722222 529.033333,230.755556 529.033333,227.477778 L529.033333,166.511111 C529.033333,163.888889 527.066667,161.266667 523.788889,161.266667 L482.488889,161.266667 L482.488889,137.666667 C489.7,136.355556 495.6,131.111111 498.222222,124.555556 L557.222222,124.555556 L557.222222,131.766667 C557.222222,133.077778 557.877778,134.388889 559.188889,134.388889 C559.844444,134.388889 560.5,135.044444 560.5,135.044444 C561.155556,135.044444 561.811111,135.044444 562.466667,134.388889 L582.788889,120.622222 C583.444444,119.966667 584.1,119.311111 584.1,118 C584.1,116.688889 583.444444,116.033333 582.788889,115.377778 L582.788889,115.377778 Z M92.4333333,171.755556 L92.4333333,222.888889 L13.7666667,222.888889 L13.7666667,171.755556 L92.4333333,171.755556 L92.4333333,171.755556 Z M53.1,125.211111 C49.1666667,125.211111 45.8888889,121.933333 45.8888889,118 C45.8888889,114.066667 49.1666667,110.788889 53.1,110.788889 C57.0333333,110.788889 60.3111111,114.066667 60.3111111,118 C60.3111111,121.933333 57.0333333,125.211111 53.1,125.211111 L53.1,125.211111 Z M120.622222,64.2444444 L120.622222,13.1111111 L199.288889,13.1111111 L199.288889,64.2444444 L120.622222,64.2444444 L120.622222,64.2444444 Z M159.955556,125.211111 C156.022222,125.211111 152.744444,121.933333 152.744444,118 C152.744444,114.066667 156.022222,110.788889 159.955556,110.788889 C163.888889,110.788889 167.166667,114.066667 167.166667,118 C167.166667,121.933333 163.888889,125.211111 159.955556,125.211111 L159.955556,125.211111 Z M305.488889,171.755556 L305.488889,222.888889 L226.822222,222.888889 L226.822222,171.755556 L305.488889,171.755556 L305.488889,171.755556 Z M266.811111,125.211111 C262.877778,125.211111 259.6,121.933333 259.6,118 C259.6,114.066667 262.877778,110.788889 266.811111,110.788889 C270.744444,110.788889 274.022222,114.066667 274.022222,118 C274.022222,121.933333 270.744444,125.211111 266.811111,125.211111 L266.811111,125.211111 Z M334.333333,64.2444444 L334.333333,13.1111111 L413,13.1111111 L413,64.2444444 L334.333333,64.2444444 L334.333333,64.2444444 Z M374.322222,125.211111 C370.388889,125.211111 367.111111,121.933333 367.111111,118 C367.111111,114.066667 370.388889,110.788889 374.322222,110.788889 C378.255556,110.788889 381.533333,114.066667 381.533333,118 C381.533333,121.933333 377.6,125.211111 374.322222,125.211111 L374.322222,125.211111 Z M520.511111,171.755556 L520.511111,222.888889 L441.844444,222.888889 L441.844444,171.755556 L520.511111,171.755556 L520.511111,171.755556 Z M481.177778,125.211111 C477.244444,125.211111 473.966667,121.933333 473.966667,118 C473.966667,114.066667 477.244444,110.788889 481.177778,110.788889 C485.111111,110.788889 488.388889,114.066667 488.388889,118 C488.388889,121.933333 484.455556,125.211111 481.177778,125.211111 L481.177778,125.211111 Z" id="Shape" sketch:type="MSShapeGroup"></path>
        </g>
    </g>
</svg>